<?xml version="1.0" standalone="no"?>
<!DOCTYPE svg PUBLIC "-//W3C//DTD SVG 20010904//EN"
 "http://www.w3.org/TR/2001/REC-SVG-20010904/DTD/svg10.dtd">
<svg version="1.0" xmlns="http://www.w3.org/2000/svg"
 width="180.000000pt" height="180.000000pt" viewBox="0 0 180.000000 180.000000"
 preserveAspectRatio="xMidYMid meet">

<g transform="translate(0.000000,180.000000) scale(0.100000,-0.100000)"
fill="#000000" stroke="none">
<path d="M771 1394 c-107 -29 -225 -113 -258 -186 -60 -128 -22 -307 89 -422
26 -27 50 -47 53 -44 3 3 -2 22 -11 44 -10 23 -17 67 -17 109 -1 118 53 208
158 263 46 24 62 27 211 32 153 5 162 6 201 32 52 34 88 81 102 133 6 22 11
43 11 48 0 4 -109 7 -242 6 -180 0 -257 -4 -297 -15z"/>
<path d="M411 1020 c-35 -164 8 -334 106 -420 67 -59 116 -75 228 -75 89 0
107 3 162 29 34 15 71 38 83 51 l21 22 -52 -8 c-97 -15 -222 12 -313 69 -103
64 -193 206 -203 321 -3 33 -9 61 -14 61 -4 0 -12 -23 -18 -50z"/>
<path d="M1098 1000 c-87 -15 -138 -62 -138 -128 0 -26 2 -27 45 -24 40 4 49
0 80 -31 47 -47 50 -94 9 -164 -70 -121 -253 -200 -406 -174 -35 5 -74 13 -88
17 -41 10 43 -44 114 -75 56 -23 73 -26 196 -26 118 1 143 4 193 24 141 56
241 157 271 276 9 35 17 114 18 187 3 124 2 128 -17 121 -22 -7 -139 -7 -195
1 -19 2 -56 0 -82 -4z m73 -70 c-25 -21 -48 -25 -70 -11 -24 16 -1 31 47 31
l47 -1 -24 -19z"/>
</g>
</svg>
